<svg id="Layer_1" data-name="Layer 1" xmlns="http://www.w3.org/2000/svg" viewBox="0 0 156.31 94.65">
  <title>cup2</title>
  <g>
    <g id="_Group_" data-name="&lt;Group&gt;">
      <rect id="_Rectangle_" data-name="&lt;Rectangle&gt;" width="156.31" height="94.65" style="fill: #fdf9ce"/>
      <line id="_Path_" data-name="&lt;Path&gt;" x1="0.54" y1="14.15" x2="155.77" y2="14.15" style="fill: none;stroke: #f99;stroke-miterlimit: 10;stroke-width: 1.08170810336409px"/>
      <line id="_Path_2" data-name="&lt;Path&gt;" x1="0.54" y1="83.25" x2="155.77" y2="83.25" style="fill: none;stroke: #f99;stroke-miterlimit: 10;stroke-width: 1.08170810336409px"/>
    </g>
    <g>
      <path d="M55.25,53.69a4.76,4.76,0,0,1-1.46-3.62,8.24,8.24,0,0,1,1.49-4.22c.22-.32.4-.45.53-.45s.13.07.13.18a1.41,1.41,0,0,1-.16.54,6.89,6.89,0,0,0-1,3.06,2.93,2.93,0,0,0,1.45,2.29,5,5,0,0,0,2.92.82c2.62,0,6.09-1.08,6.81-2.93,0-.16,0-.31,0-.47a6.79,6.79,0,0,0-.92-3.37,7.19,7.19,0,0,1-.5-.89.55.55,0,0,1,0-.18,3.36,3.36,0,0,1,.18-.85,10.65,10.65,0,0,1,.45-1.16c.07-.15.15-.25.22-.25s.12,0,.23.29a11,11,0,0,1,1.35,5,9.45,9.45,0,0,1-.37,2.9,6,6,0,0,1-1.17,1.93,8.45,8.45,0,0,1-2.67,1.74,11.48,11.48,0,0,1-4.39.76A4.58,4.58,0,0,1,55.25,53.69Zm7-14.82c.1.06.07.12,0,.21-.26.34-1.13,1.33-1.52,1.79-.09.1-.13.1-.25,0a7.77,7.77,0,0,1-1.86-1.55c-.07-.12-.07-.13,0-.26A12,12,0,0,1,60,37.4c.21-.21.25-.22.32-.15A11.56,11.56,0,0,0,62.25,38.86Z" style="fill: #3f0000"/>
      <path d="M73.59,52.92a2.73,2.73,0,0,1-1.8-.51,5.12,5.12,0,0,1-1.38-3.31c-.16-1.16-.26-2.49-.32-4a72.19,72.19,0,0,0-.54-7.38,1.81,1.81,0,0,1,0-.26.69.69,0,0,1,.16-.42,11.63,11.63,0,0,0,.76-1.27c.16-.31.22-.35.31-.35s.21.19.29.7c.47,3.76.07,9,.66,11.89a6.18,6.18,0,0,0,.41,1.44,1.62,1.62,0,0,0,1.54,1c.85,0,1.27.4,1.29,1.17,0,1-.45,1.27-1.14,1.27Z" style="fill: #3f0000"/>
      <path d="M87.87,49.29a.2.2,0,0,1-.15.07h-.45c-.59,0-.89,0-1.6-.09,0,.4.34.67,1,.86a7.1,7.1,0,0,0,2,.32h1.2c.81,0,1.22.38,1.22,1.16s-.41,1.29-1.22,1.29h-1A4,4,0,0,1,85.87,52a4.09,4.09,0,0,1-.78-2.75,5.86,5.86,0,0,0-2.56.41c-.45.18-1,.37-2.12.94a41.2,41.2,0,0,1-3.76,1.76,8.67,8.67,0,0,1-2.74.54h-.35c-.76,0-1.14-.42-1.14-1.26s.38-1.19,1.14-1.19h.35A12.65,12.65,0,0,0,77.57,50a30.8,30.8,0,0,0,4.15-1.52c-2-.56-3.74-1.26-4.86-1.26a1.82,1.82,0,0,0-.66.12,2.92,2.92,0,0,1-.86.32c-.12,0-.21-.06-.21-.22a3.47,3.47,0,0,1,1.29-2,2.18,2.18,0,0,1,1.51-.62,2.58,2.58,0,0,1,.5.06c1.95.44,4.44,1.51,6.39,1.88a18.3,18.3,0,0,0,3.66.4H89c.07,0,.09.06.09.12A4.77,4.77,0,0,1,87.87,49.29Zm-3.46,5.29c.1.06.07.12,0,.21-.26.34-1.13,1.33-1.52,1.79-.09.1-.13.1-.25,0A7.77,7.77,0,0,1,80.77,55c-.07-.12-.07-.13,0-.26a12,12,0,0,1,1.39-1.67c.21-.21.25-.22.32-.15A11.56,11.56,0,0,0,84.42,54.58Z" style="fill: #3f0000"/>
      <path d="M94.67,49a1.73,1.73,0,0,0,1.45,1.45,3.37,3.37,0,0,0,.51,0h.15c.92,0,.92.75.92,1.1s0,1.35-.89,1.35h-.19a5.23,5.23,0,0,1-.62,0,3,3,0,0,1-2.33-1.77c-.26.66-1.58,1.8-3.94,1.8h-.1a1.09,1.09,0,0,1-1-1.22,1.1,1.1,0,0,1,1-1.23h.73a3.7,3.7,0,0,0,3.5-1.71c.28-.48.41-.54.53-.54S94.67,48.44,94.67,49Zm.89-6.28c.1.06.07.12,0,.21-.26.34-1.13,1.33-1.52,1.79-.09.1-.13.1-.25,0a7.77,7.77,0,0,1-1.86-1.55c-.07-.12-.07-.13,0-.26a12,12,0,0,1,1.39-1.67c.21-.21.25-.22.32-.15A11.56,11.56,0,0,0,95.56,42.71Z" style="fill: #3f0000"/>
      <path d="M103,54.76c.1-.06.15,0,.15.06a1.73,1.73,0,0,1-.54,1.41L98.16,58.7c-.09,0-.1,0-.1-.06a2.6,2.6,0,0,1,.25-1.05A1.9,1.9,0,0,1,99,57Z" style="fill: #3f0000"/>
      <path d="M102.89,47.34a8.73,8.73,0,0,1-1,4,3.2,3.2,0,0,1-1.48.89,12.73,12.73,0,0,1-3.56.69h-.22c-.69,0-1-.42-1-1.27s.34-1.17,1-1.17h.21a13.71,13.71,0,0,0,3.91-.53c.81-.28.94-.35.94-1.14a3.34,3.34,0,0,0-.34-1.38,2.06,2.06,0,0,1-1.92,1.05c-1.16,0-1.9-.7-1.9-2.09C97.53,44.46,99,42,99.69,42,101.7,42,102.89,45.6,102.89,47.34Zm-1.52-10.65c.1.06.07.12,0,.21-.26.34-1.13,1.33-1.52,1.79-.09.1-.13.1-.25,0a7.77,7.77,0,0,1-1.86-1.55c-.07-.12-.07-.13,0-.26a12,12,0,0,1,1.39-1.67c.21-.21.25-.22.32-.15A11.56,11.56,0,0,0,101.36,36.69Zm-1.17,7.94a1.34,1.34,0,0,0-.79-.31c-.19,0-.38.15-.57.47a1.25,1.25,0,0,0-.21.54c0,.48.53.69,1.05.69s1-.21,1-.53A1.62,1.62,0,0,0,100.19,44.63Z" style="fill: #3f0000"/>
    </g>
  </g>
</svg>
