<svg id="Layer_1" data-name="Layer 1" xmlns="http://www.w3.org/2000/svg" viewBox="0 0 156.31 94.65">
  <title>key2</title>
  <g>
    <g id="_Group_" data-name="&lt;Group&gt;">
      <rect id="_Rectangle_" data-name="&lt;Rectangle&gt;" width="156.31" height="94.65" style="fill: #fdf9ce"/>
      <line id="_Path_" data-name="&lt;Path&gt;" x1="0.54" y1="14.15" x2="155.77" y2="14.15" style="fill: none;stroke: #f99;stroke-miterlimit: 10;stroke-width: 1.08170810336409px"/>
      <line id="_Path_2" data-name="&lt;Path&gt;" x1="0.54" y1="83.25" x2="155.77" y2="83.25" style="fill: none;stroke: #f99;stroke-miterlimit: 10;stroke-width: 1.08170810336409px"/>
    </g>
    <g>
      <path d="M71.25,60.61c.31,0,.38.06.38.15s-.56.48-1,.66a17.85,17.85,0,0,1-6.84,1.76c-4.73,0-8.16-2.48-8.16-7.56,0-4.69,2.48-8.89,5.77-10.11a11.14,11.14,0,0,0-2.29-.26,6.06,6.06,0,0,0-2.55.54,1.66,1.66,0,0,1-.75.21c-.1,0-.16,0-.16-.18a4.12,4.12,0,0,1,1-1.92,4.32,4.32,0,0,1,3.06-1c2.23,0,4.48.78,6.81.78,1,0,1.73-.07,2.24-.07s.42,0,.42.15a3.75,3.75,0,0,1-1.36,2.11,14.39,14.39,0,0,0-4.7.75c-4.78,1.64-6.4,5.45-6.4,7.6,0,3.46,1.77,6.59,10,6.59C69.25,60.85,70.77,60.61,71.25,60.61Z" style="fill: #3f0000"/>
      <path d="M75.65,50.46a2.73,2.73,0,0,1-1.8-.51,5.12,5.12,0,0,1-1.38-3.31c-.16-1.16-.26-2.49-.32-4a72.19,72.19,0,0,0-.54-7.38,1.81,1.81,0,0,1,0-.26.69.69,0,0,1,.16-.42,11.63,11.63,0,0,0,.76-1.27c.16-.31.22-.35.31-.35s.21.19.29.7c.47,3.76.07,9,.66,11.89A6.18,6.18,0,0,0,74.17,47a1.62,1.62,0,0,0,1.54,1c.85,0,1.27.4,1.29,1.17,0,1-.45,1.27-1.14,1.27Z" style="fill: #3f0000"/>
      <path d="M80.85,46.54A1.73,1.73,0,0,0,82.3,48a3.37,3.37,0,0,0,.51,0H83c.92,0,.92.75.92,1.1s0,1.35-.89,1.35H82.8a5.23,5.23,0,0,1-.62,0,3,3,0,0,1-2.33-1.77c-.26.66-1.58,1.8-3.94,1.8h-.1a1.09,1.09,0,0,1-1-1.22,1.1,1.1,0,0,1,1-1.23h.73a3.7,3.7,0,0,0,3.5-1.71c.28-.48.41-.54.53-.54S80.85,46,80.85,46.54Zm-.25-7.32c.19-.19.26-.23.37-.12a11.39,11.39,0,0,0,1.66,1.52c.18.12.18.16,0,.34-.5.53-1,1.05-1.44,1.63-.12.15-.16.15-.32,0a16.7,16.7,0,0,1-1.54-1.3,12.74,12.74,0,0,1-1.22,1.26c-.13.09-.21.18-.41,0A6.83,6.83,0,0,1,76,41.13c-.1-.13-.1-.19,0-.35.4-.48,1-1.11,1.48-1.64.12-.12.19-.1.34.06a7.85,7.85,0,0,0,1.54,1.32C79.75,40.13,80.34,39.46,80.6,39.21Z" style="fill: #3f0000"/>
      <path d="M91.44,48c.72,0,1.07.4,1.07,1.2s-.35,1.25-1.07,1.25h-.29a9,9,0,0,1-4.66-1,6.49,6.49,0,0,1-3.46,1H82.8q-1,0-1-1.27c0-.78.35-1.17,1-1.17h.23a2.76,2.76,0,0,0,1.83-.41,3,3,0,0,1-.12-.81c0-2.45,2.74-5.51,4.34-5.51.89,0,1.36,1,1.36,2.33a5.59,5.59,0,0,1-1.61,4,5.23,5.23,0,0,0,2.3.41Zm-2.72-12c.1.06.07.12,0,.21-.26.34-1.13,1.33-1.52,1.79-.09.1-.13.1-.25,0a7.77,7.77,0,0,1-1.86-1.55c-.07-.12-.07-.13,0-.26a12,12,0,0,1,1.39-1.67c.21-.21.25-.22.32-.15A11.56,11.56,0,0,0,88.72,36.06ZM88,43.78a2,2,0,0,0-1.76,1.33c0,.54.4,1,1.3,1.51.32-.13,1.54-1,1.54-1.42C89.1,44.31,88.8,43.78,88,43.78Z" style="fill: #3f0000"/>
      <path d="M99.83,52.54c.1-.06.15,0,.15.06A1.73,1.73,0,0,1,99.44,54L95,56.48c-.09,0-.1,0-.1-.06a2.6,2.6,0,0,1,.25-1.05,1.9,1.9,0,0,1,.75-.59Z" style="fill: #3f0000"/>
      <path d="M91.35,50.46h-.12q-1.05,0-1.05-1.27c0-.78.4-1.17,1.07-1.17h.07a3.71,3.71,0,0,0,3.15-1.55l1.35-2.09a3.2,3.2,0,0,1,2.36-1.61c1.82,0,2.53,3.12,2.53,4.38S99.55,49.71,99,49.71a8.66,8.66,0,0,1-4.06-2C93.84,49.61,92.68,50.46,91.35,50.46ZM97,44.89c-.19,0-.34.09-.53.35a3.15,3.15,0,0,0-.31.51c.48.28,2,1.11,2.65,1.48C98.79,46.36,97.75,44.89,97,44.89Z" style="fill: #3f0000"/>
    </g>
  </g>
</svg>
