<svg id="Layer_1" data-name="Layer 1" xmlns="http://www.w3.org/2000/svg" viewBox="0 0 156.31 94.65">
  <title>desk2</title>
  <g>
    <g id="_Group_" data-name="&lt;Group&gt;">
      <rect id="_Rectangle_" data-name="&lt;Rectangle&gt;" width="156.31" height="94.65" style="fill: #fdf9ce"/>
      <line id="_Path_" data-name="&lt;Path&gt;" x1="0.54" y1="14.15" x2="155.77" y2="14.15" style="fill: none;stroke: #f99;stroke-miterlimit: 10;stroke-width: 1.08170810336409px"/>
      <line id="_Path_2" data-name="&lt;Path&gt;" x1="0.54" y1="83.25" x2="155.77" y2="83.25" style="fill: none;stroke: #f99;stroke-miterlimit: 10;stroke-width: 1.08170810336409px"/>
    </g>
    <g>
      <path d="M55.51,47.66a12.36,12.36,0,0,0,4.89.73,25.92,25.92,0,0,0,7.16-.92A12.82,12.82,0,0,0,72,45.6c.06,0,.21-.16.28-.16s.18.1.18.48c0,1.33.75,2.09,1.55,2.09h.35c.66,0,1,.4,1,1.17s-.32,1.27-1,1.27h-.44A2.62,2.62,0,0,1,71.14,48a26.18,26.18,0,0,1-3.94,1.71,24.34,24.34,0,0,1-7.13,1.14,14.67,14.67,0,0,1-5.29-.81,3.18,3.18,0,0,1-2.31-3.21,7.14,7.14,0,0,1,.91-3.33c.22-.35.47-.64.69-.64s.12.06.12.16a2.37,2.37,0,0,1-.21.69,4.82,4.82,0,0,0-.41,1.66C53.57,46,54,46.93,55.51,47.66Zm8.42,7.88c.1.06.07.12,0,.21-.26.34-1.13,1.33-1.52,1.79-.09.1-.13.1-.25,0A7.77,7.77,0,0,1,60.29,56c-.07-.12-.07-.13,0-.26a12,12,0,0,1,1.39-1.67c.21-.21.25-.22.32-.15A11.56,11.56,0,0,0,63.94,55.54Z" style="fill: #3f0000"/>
      <path d="M79.11,46.54A1.73,1.73,0,0,0,80.56,48a3.37,3.37,0,0,0,.51,0h.15c.92,0,.92.75.92,1.1s0,1.35-.89,1.35h-.19a5.23,5.23,0,0,1-.62,0,3,3,0,0,1-2.33-1.77c-.26.66-1.58,1.8-3.94,1.8h-.1a1.09,1.09,0,0,1-1-1.22,1.1,1.1,0,0,1,1-1.23h.73a3.7,3.7,0,0,0,3.5-1.71c.28-.48.41-.54.53-.54S79.11,46,79.11,46.54Zm-.25-7.32c.19-.19.26-.23.37-.12a11.39,11.39,0,0,0,1.66,1.52c.18.12.18.16,0,.34-.5.53-1,1.05-1.44,1.63-.12.15-.16.15-.32,0a16.7,16.7,0,0,1-1.54-1.3,12.74,12.74,0,0,1-1.22,1.26c-.13.09-.21.18-.41,0a6.83,6.83,0,0,1-1.66-1.48c-.1-.13-.1-.19,0-.35.4-.48,1-1.11,1.48-1.64.12-.12.19-.1.34.06a7.85,7.85,0,0,0,1.54,1.32C78,40.13,78.6,39.46,78.86,39.21Z" style="fill: #3f0000"/>
      <path d="M94.16,30.94c.07,0,.1.06.1.15a6.41,6.41,0,0,1-.7,1.8.26.26,0,0,1-.12.13,79.17,79.17,0,0,0-8.67,4.19A6.65,6.65,0,0,0,83,38.58c.78.67,1.74,1.41,2.49,2a58.52,58.52,0,0,1,5.86,5.1c1.7,1.71,2.72,2.34,3.21,2.34h.31c.66,0,1,.38,1,1.14s-.32,1.3-1,1.3h-.48a4.23,4.23,0,0,1-2.31-1.05,25.42,25.42,0,0,1-2.36-2.27A14.27,14.27,0,0,0,87.33,45a9.73,9.73,0,0,1,.09,1.25,4.67,4.67,0,0,1-.34,1.88,3.32,3.32,0,0,1-2,1.7,11.79,11.79,0,0,1-3.76.66h-.28c-.64,0-1-.42-1-1.29s.34-1.16,1-1.16a19.27,19.27,0,0,0,3.75-.44c1-.21,1.54-.62,1.63-1.19-.13-1.14-1.44-2.77-3.9-4.89A2,2,0,0,1,81.82,40c0-1.87.28-2.56.57-2.89A11.7,11.7,0,0,1,85.21,35,55.09,55.09,0,0,1,94,31Z" style="fill: #3f0000"/>
      <path d="M102.37,36.56c.1-.06.15,0,.15.06A1.73,1.73,0,0,1,102,38L97.56,40.5c-.09,0-.1,0-.1-.06a2.6,2.6,0,0,1,.25-1.05,1.9,1.9,0,0,1,.75-.59Z" style="fill: #3f0000"/>
      <path d="M94.79,50.46h-.12q-1.05,0-1.05-1.27c0-.78.4-1.17,1.07-1.17h.07a3.71,3.71,0,0,0,3.15-1.55l1.35-2.09a3.2,3.2,0,0,1,2.36-1.61c1.82,0,2.53,3.12,2.53,4.38s-1.16,2.58-1.71,2.58a8.66,8.66,0,0,1-4.06-2C97.28,49.61,96.12,50.46,94.79,50.46Zm5.68-5.57c-.19,0-.34.09-.53.35a3.15,3.15,0,0,0-.31.51c.48.28,2,1.11,2.65,1.48C102.23,46.36,101.19,44.9,100.47,44.9Z" style="fill: #3f0000"/>
    </g>
  </g>
</svg>
