<svg id="Layer_1" data-name="Layer 1" xmlns="http://www.w3.org/2000/svg" viewBox="0 0 156.31 94.65">
  <title>girl2</title>
  <g>
    <g id="_Group_" data-name="&lt;Group&gt;">
      <rect id="_Rectangle_" data-name="&lt;Rectangle&gt;" width="156.31" height="94.65" style="fill: #fdf9ce"/>
      <line id="_Path_" data-name="&lt;Path&gt;" x1="0.54" y1="14.15" x2="155.77" y2="14.15" style="fill: none;stroke: #f99;stroke-miterlimit: 10;stroke-width: 1.08170810336409px"/>
      <line id="_Path_2" data-name="&lt;Path&gt;" x1="0.54" y1="83.25" x2="155.77" y2="83.25" style="fill: none;stroke: #f99;stroke-miterlimit: 10;stroke-width: 1.08170810336409px"/>
    </g>
    <g>
      <path d="M64.81,50.65a12.36,12.36,0,0,0,4.89.73,25.92,25.92,0,0,0,7.16-.92,12.82,12.82,0,0,0,4.41-1.87c.06,0,.21-.16.28-.16s.18.1.18.48c0,1.33.75,2.09,1.55,2.09h.35c.66,0,1,.4,1,1.17s-.32,1.27-1,1.27h-.44A2.62,2.62,0,0,1,80.44,51a26.18,26.18,0,0,1-3.94,1.71,24.34,24.34,0,0,1-7.13,1.14,14.67,14.67,0,0,1-5.29-.81,3.18,3.18,0,0,1-2.31-3.21,7.14,7.14,0,0,1,.91-3.33c.22-.35.47-.64.69-.64s.12.06.12.16a2.37,2.37,0,0,1-.21.69,4.82,4.82,0,0,0-.41,1.66C62.86,49,63.27,49.92,64.81,50.65Zm8.31-8.26c.19-.19.26-.23.37-.12a11.39,11.39,0,0,0,1.66,1.52c.18.12.18.16,0,.34-.5.53-1,1.05-1.44,1.63-.12.15-.16.15-.32,0a16.7,16.7,0,0,1-1.54-1.3,12.74,12.74,0,0,1-1.22,1.26c-.13.09-.21.18-.41,0a6.83,6.83,0,0,1-1.66-1.48c-.1-.13-.1-.19,0-.35.4-.48,1-1.11,1.48-1.64.12-.12.19-.1.34.06a7.85,7.85,0,0,0,1.54,1.32C72.26,43.31,72.85,42.64,73.11,42.39Z" style="fill: #3f0000"/>
      <path d="M89.36,51h.12c.63,0,1,.62,1,1.23s-.32,1.22-1,1.22h-.12a2.85,2.85,0,0,1-1.9-.53,4.21,4.21,0,0,1-1.22-2c-.09.73-1.14,2.56-2.75,2.56h-.12c-.66,0-1-.6-1-1.22s.32-1.23,1-1.23h.09a2.73,2.73,0,0,0,2.29-.86.25.25,0,0,0,0-.15c0-.21-.42-2.75-.42-3a1.36,1.36,0,0,1,0-.35A11,11,0,0,1,86,45.2c.12-.25.18-.35.26-.35s.19.16.26.44c.31,1.11.57,3.35.86,4.07A2.78,2.78,0,0,0,89.36,51ZM88,39.11c.1.06.07.12,0,.21-.26.34-1.13,1.33-1.52,1.79-.09.1-.13.1-.25,0a7.77,7.77,0,0,1-1.86-1.55c-.07-.12-.07-.13,0-.26a12,12,0,0,1,1.39-1.67c.21-.21.25-.22.32-.15A11.56,11.56,0,0,0,88,39.11Z" style="fill: #3f0000"/>
      <path d="M95.44,60.22c.1-.06.15,0,.15.06A1.73,1.73,0,0,1,95,61.68l-4.42,2.48c-.09,0-.1,0-.1-.06A2.6,2.6,0,0,1,90.77,63a1.9,1.9,0,0,1,.75-.59Z" style="fill: #3f0000"/>
      <path d="M93.61,51.94a3.91,3.91,0,0,1-2.77,1.44,12.06,12.06,0,0,1-1.52.07,1.09,1.09,0,0,1-1-1.22,1.1,1.1,0,0,1,1-1.23h.57c1.08,0,2.8,0,3.44-.64a6.5,6.5,0,0,0-1.14-2.62.11.11,0,0,1,0-.07,10.64,10.64,0,0,1,.75-2q0-.13.13-.13c.37,0,1.23,1.71,1.23,3.75A4.4,4.4,0,0,1,93.61,51.94Zm1.23,4.2c.1.06.07.12,0,.21-.26.34-1.13,1.33-1.52,1.79-.09.1-.13.1-.25,0a7.77,7.77,0,0,1-1.86-1.55c-.07-.12-.07-.13,0-.26a12,12,0,0,1,1.39-1.67c.21-.21.25-.22.32-.15A11.56,11.56,0,0,0,94.84,56.14Z" style="fill: #3f0000"/>
    </g>
  </g>
</svg>
