<svg id="Layer_1" data-name="Layer 1" xmlns="http://www.w3.org/2000/svg" viewBox="0 0 156.31 94.65">
  <title>dress2</title>
  <g>
    <g id="_Group_" data-name="&lt;Group&gt;">
      <rect id="_Rectangle_" data-name="&lt;Rectangle&gt;" width="156.31" height="94.65" style="fill: #fdf9ce"/>
      <line id="_Path_" data-name="&lt;Path&gt;" x1="0.54" y1="14.15" x2="155.77" y2="14.15" style="fill: none;stroke: #f99;stroke-miterlimit: 10;stroke-width: 1.08170810336409px"/>
      <line id="_Path_2" data-name="&lt;Path&gt;" x1="0.54" y1="83.25" x2="155.77" y2="83.25" style="fill: none;stroke: #f99;stroke-miterlimit: 10;stroke-width: 1.08170810336409px"/>
    </g>
    <g>
      <path d="M55.57,56.58A4.76,4.76,0,0,1,54.11,53a8.24,8.24,0,0,1,1.49-4.22c.22-.32.4-.45.53-.45s.13.07.13.18a1.41,1.41,0,0,1-.16.54,6.89,6.89,0,0,0-1,3.06,2.93,2.93,0,0,0,1.45,2.29,5,5,0,0,0,2.92.82c2.62,0,6.09-1.08,6.81-2.93,0-.16,0-.31,0-.47a6.79,6.79,0,0,0-.92-3.37,7.19,7.19,0,0,1-.5-.89.55.55,0,0,1,0-.18,3.36,3.36,0,0,1,.18-.85,10.65,10.65,0,0,1,.45-1.16c.07-.15.15-.25.22-.25s.12,0,.23.29a11,11,0,0,1,1.35,5,9.45,9.45,0,0,1-.37,2.9,6,6,0,0,1-1.17,1.93A8.45,8.45,0,0,1,63.12,57a11.48,11.48,0,0,1-4.39.76A4.58,4.58,0,0,1,55.57,56.58Zm7-14.82c.1.06.07.12,0,.21-.26.34-1.13,1.33-1.52,1.79-.09.1-.13.1-.25,0a7.77,7.77,0,0,1-1.86-1.55c-.07-.12-.07-.13,0-.26a12,12,0,0,1,1.39-1.67c.21-.21.25-.22.32-.15A11.56,11.56,0,0,0,62.57,41.76Z" style="fill: #3f0000"/>
      <path d="M73.91,55.82a2.73,2.73,0,0,1-1.8-.51A5.12,5.12,0,0,1,70.73,52c-.16-1.16-.26-2.49-.32-4a72.19,72.19,0,0,0-.54-7.38,1.81,1.81,0,0,1,0-.26.69.69,0,0,1,.16-.42,11.63,11.63,0,0,0,.76-1.27c.16-.31.22-.35.31-.35s.21.19.29.7c.47,3.76.07,9,.66,11.89a6.18,6.18,0,0,0,.41,1.44,1.62,1.62,0,0,0,1.54,1c.85,0,1.27.4,1.29,1.17,0,1-.45,1.27-1.14,1.27Z" style="fill: #3f0000"/>
      <path d="M79.11,51.9a1.73,1.73,0,0,0,1.45,1.45,3.37,3.37,0,0,0,.51,0h.15c.92,0,.92.75.92,1.1s0,1.35-.89,1.35h-.19a5.23,5.23,0,0,1-.62,0A3,3,0,0,1,78.12,54c-.26.66-1.58,1.8-3.94,1.8h-.1a1.09,1.09,0,0,1-1-1.22,1.1,1.1,0,0,1,1-1.23h.73a3.7,3.7,0,0,0,3.5-1.71c.28-.48.41-.54.53-.54S79.11,51.34,79.11,51.9Zm-.25-7.32c.19-.19.26-.23.37-.12A11.39,11.39,0,0,0,80.89,46c.18.12.18.16,0,.34-.5.53-1,1.05-1.44,1.63-.12.15-.16.15-.32,0a16.7,16.7,0,0,1-1.54-1.3,12.74,12.74,0,0,1-1.22,1.26c-.13.09-.21.18-.41,0a6.83,6.83,0,0,1-1.66-1.48c-.1-.13-.1-.19,0-.35.4-.48,1-1.11,1.48-1.64.12-.12.19-.1.34.06a7.85,7.85,0,0,0,1.54,1.32C78,45.49,78.6,44.82,78.86,44.57Z" style="fill: #3f0000"/>
      <path d="M90.58,50.94c.15,0,.19.15.19.53,0,.13,0,.28,0,.5A1.19,1.19,0,0,0,92,53.18c1.08,0,1.63-1,2.08-1.95,0-.1.18-.38.35-.38s.21.1.25.67a1.77,1.77,0,0,0,1.66,1.85h.31c.78,0,1.16.35,1.16,1.1s-.38,1.35-1.16,1.35h-.31A2.11,2.11,0,0,1,94,53.74a2.86,2.86,0,0,1-2.42,2.09c-1.13,0-1.73-1-1.83-2.08a3.16,3.16,0,0,1-2.87,2,2.23,2.23,0,0,1-2.48-1.68,2.75,2.75,0,0,1-.88,1.2,3.67,3.67,0,0,1-2.26.51h-.25c-.75,0-1.11-.42-1.11-1.27s.37-1.17,1.1-1.17h.31a3.36,3.36,0,0,0,3.4-1.83c0-.13.19-.35.34-.35s.22.19.25.57c0,.94.85,1.42,1.9,1.42a3.14,3.14,0,0,0,3-1.86C90.29,51.18,90.44,50.94,90.58,50.94Z" style="fill: #3f0000"/>
      <path d="M100.84,31.3a4.24,4.24,0,0,1-.32,1.58c.23.15.38.28.38.4a1.89,1.89,0,0,1-.35,1.05c-.06.09-.09.09-.12.07l-.54-.34a6.41,6.41,0,0,1-2.65,2.46,3.78,3.78,0,0,1-1.58.41c-.28,0-.44-.06-.44-.15s.22-.21.6-.41a13.81,13.81,0,0,0,3.3-2.7c-.48-.34-1.13-.76-1.13-1.46a2.37,2.37,0,0,1,.63-1.41A1.79,1.79,0,0,1,99.94,30C100.62,30,100.81,30.71,100.84,31.3Zm-1.93.48s0,0,0,.07.47.45.85.63a1.34,1.34,0,0,0,.13-.7c0-.31-.13-.47-.37-.47A.79.79,0,0,0,98.9,31.78Z" style="fill: #3f0000"/>
      <path d="M102.57,50.24a8.73,8.73,0,0,1-1,4,3.2,3.2,0,0,1-1.48.89,12.73,12.73,0,0,1-3.56.69h-.22c-.69,0-1-.42-1-1.27s.34-1.17,1-1.17h.21a13.71,13.71,0,0,0,3.91-.53c.81-.28.94-.35.94-1.14a3.34,3.34,0,0,0-.34-1.38,2.06,2.06,0,0,1-1.92,1.05c-1.16,0-1.9-.7-1.9-2.09,0-1.93,1.45-4.44,2.17-4.44C101.38,44.85,102.57,48.5,102.57,50.24ZM101,39.59c.1.06.07.12,0,.21-.26.34-1.13,1.33-1.52,1.79-.09.1-.13.1-.25,0a7.77,7.77,0,0,1-1.86-1.55c-.07-.12-.07-.13,0-.26a12,12,0,0,1,1.39-1.67c.21-.21.25-.22.32-.15A11.56,11.56,0,0,0,101,39.59Zm-1.17,7.94a1.34,1.34,0,0,0-.79-.31c-.19,0-.38.15-.57.47a1.25,1.25,0,0,0-.21.54c0,.48.53.69,1.05.69s1-.21,1-.53A1.62,1.62,0,0,0,99.87,47.53Z" style="fill: #3f0000"/>
    </g>
  </g>
</svg>
