<svg id="Layer_1" data-name="Layer 1" xmlns="http://www.w3.org/2000/svg" viewBox="0 0 156.31 94.65">
  <title>faces2</title>
  <g>
    <g id="_Group_" data-name="&lt;Group&gt;">
      <rect id="_Rectangle_" data-name="&lt;Rectangle&gt;" width="156.31" height="94.65" style="fill: #fdf9ce"/>
      <line id="_Path_" data-name="&lt;Path&gt;" x1="0.54" y1="14.15" x2="155.77" y2="14.15" style="fill: none;stroke: #f99;stroke-miterlimit: 10;stroke-width: 1.08170810336409px"/>
      <line id="_Path_2" data-name="&lt;Path&gt;" x1="0.54" y1="83.25" x2="155.77" y2="83.25" style="fill: none;stroke: #f99;stroke-miterlimit: 10;stroke-width: 1.08170810336409px"/>
    </g>
    <g>
      <path d="M63.28,42.94a2.87,2.87,0,0,1,1.54.69,4.17,4.17,0,0,1,1.57,3.15A6.57,6.57,0,0,1,66,49a3.35,3.35,0,0,1-3.33,2.34,2.44,2.44,0,0,1-2.49-2.46C60.19,47,62.34,42.94,63.28,42.94Zm1.89,4.8c-.45-.88-1.36-1.95-2.33-1.95a.51.51,0,0,0-.23.09,2.67,2.67,0,0,0-1.22,1.86c0,.5.76,1.1,1.63,1.1a3.45,3.45,0,0,0,2.14-.79.27.27,0,0,0,.06-.15A.44.44,0,0,0,65.17,47.75Z" style="fill: #3f0000"/>
      <path d="M63.1,57.68c-.35-.16-.44-.32-.44-.42s.16-.18.41-.18,1.19.19,1.95.19a4.51,4.51,0,0,0,2.23-.66c2.58-1.33,4.2-3.19,4.2-4.48a3.2,3.2,0,0,0-.1-.7h-.79a5.39,5.39,0,0,1-2.31-.48,1.81,1.81,0,0,1-1-1.64,6.58,6.58,0,0,1,.64-2.36c.6-1.35,1.33-2.36,2-2.36a2.38,2.38,0,0,1,1.89,1.23,6.69,6.69,0,0,1,.79,3h1c.67,0,1,.37,1,1.11s-.32,1.3-1,1.33l-1.13.06c-.16,3.75-1.41,6.18-4.44,7.35a2.1,2.1,0,0,1-.67.1A12.4,12.4,0,0,1,63.1,57.68Zm6.68-10.36a.88.88,0,0,0-.6-.25.9.9,0,0,0-.81.82c0,.25.26.51.83.73a3.72,3.72,0,0,0,1.23.26c.16,0,.26,0,.26-.09A2.91,2.91,0,0,0,69.78,47.32Z" style="fill: #3f0000"/>
      <path d="M76.46,45.61a1.66,1.66,0,0,0-.69.12,2.92,2.92,0,0,1-.86.32c-.16,0-.21-.12-.21-.25A3.66,3.66,0,0,1,76,43.85a2.27,2.27,0,0,1,1.51-.62,2.58,2.58,0,0,1,.5.06c1.95.44,4.44,1.51,6.39,1.88a18.3,18.3,0,0,0,3.66.4c.19,0,.35,0,.5,0s.07,0,.07.09a4.68,4.68,0,0,1-1.17,2c-.09.09-.31.09-.6.09-.51,0-1.76-.09-2-.09a8.19,8.19,0,0,0-2.39.29c-.45.16-1.27.5-2.46,1a35.08,35.08,0,0,1-3.85,1.79,8.06,8.06,0,0,1-2.67.51h-.28c-.79,0-1.19-.42-1.19-1.29a1,1,0,0,1,1.19-1.16h.29a12.69,12.69,0,0,0,3.69-.45,38.65,38.65,0,0,0,4.28-1.55A25.37,25.37,0,0,0,76.46,45.61Zm7.32,7.22c.1.06.07.12,0,.21-.26.34-1.13,1.33-1.52,1.79-.09.1-.13.1-.25,0a7.77,7.77,0,0,1-1.86-1.55c-.07-.12-.07-.13,0-.26a12,12,0,0,1,1.39-1.67c.21-.21.25-.22.32-.15A11.56,11.56,0,0,0,83.79,52.83Z" style="fill: #3f0000"/>
      <path d="M94.86,36.59a4.24,4.24,0,0,1-.32,1.58c.23.15.38.28.38.4a1.89,1.89,0,0,1-.35,1.05c-.06.09-.09.09-.12.07l-.54-.34a6.41,6.41,0,0,1-2.65,2.46,3.78,3.78,0,0,1-1.58.41c-.28,0-.44-.06-.44-.15s.22-.21.6-.41a13.81,13.81,0,0,0,3.3-2.7c-.48-.34-1.13-.76-1.13-1.46a2.37,2.37,0,0,1,.63-1.41A1.79,1.79,0,0,1,94,35.25C94.64,35.25,94.83,36,94.86,36.59Zm-1.93.48s0,0,0,.07.47.45.85.63a1.34,1.34,0,0,0,.13-.7c0-.31-.13-.47-.37-.47A.79.79,0,0,0,92.93,37.07Z" style="fill: #3f0000"/>
      <path d="M95.93,46.83a8.63,8.63,0,0,1,.5,3.3c0,4.25-1.2,7-4.45,8.25a2.1,2.1,0,0,1-.67.1A12.33,12.33,0,0,1,87,57.34c-.35-.16-.47-.29-.47-.42s.13-.19.42-.19,1.19.21,1.95.21a6.71,6.71,0,0,0,3.53-1.42c1.66-1.05,3-2.5,3-4.12A3.24,3.24,0,0,0,95,49.83a1.7,1.7,0,0,1-1.66,1.23,2,2,0,0,1-2.2-2.29,5.66,5.66,0,0,1,.69-2.24c.54-1.07,1.3-2,1.9-2S95.4,45.46,95.93,46.83Zm-2.7.07a.93.93,0,0,0-.7.48,1.25,1.25,0,0,0-.23.54c0,.38.67.67,1.23.67s.75-.19.81-.44A1.4,1.4,0,0,0,93.23,46.9Z" style="fill: #3f0000"/>
    </g>
  </g>
</svg>
